<?xml version="1.0" standalone="no"?>
<!DOCTYPE svg PUBLIC "-//W3C//DTD SVG 20010904//EN"
 "http://www.w3.org/TR/2001/REC-SVG-20010904/DTD/svg10.dtd">
<svg version="1.0" xmlns="http://www.w3.org/2000/svg"
 width="2400.000000pt" height="2424.000000pt" viewBox="0 0 2400.000000 2424.000000"
 preserveAspectRatio="xMidYMid meet">
<metadata>
Created by potrace 1.15, written by Peter Selinger 2001-2017
</metadata>
<g transform="translate(0.000000,2424.000000) scale(0.100000,-0.100000)"
fill="#EEEAEA" stroke="none">
<path d="M11565 23229 c-1063 -59 -2063 -245 -3015 -562 -1320 -440 -2554
-1132 -3610 -2026 -472 -399 -977 -909 -1368 -1380 -1494 -1798 -2385 -3991
-2557 -6291 -18 -240 -21 -1252 -5 -1490 51 -741 156 -1409 330 -2095 795
-3139 2895 -5778 5740 -7214 1302 -657 2648 -1028 4170 -1148 285 -22 1273
-26 1580 -5 1035 70 1934 243 2860 552 1057 352 2025 854 2933 1519 1422 1042
2646 2488 3428 4051 142 283 299 634 288 643 -13 11 -1849 1007 -1856 1007 -4
0 -23 -35 -42 -78 -67 -152 -301 -621 -404 -807 -734 -1337 -1664 -2431 -2778
-3269 -1251 -942 -2719 -1517 -4279 -1675 -371 -38 -529 -45 -980 -45 -430 0
-626 8 -985 40 -2019 177 -3847 884 -5331 2060 -157 124 -379 313 -496 421
l-76 71 -469 -199 c-257 -110 -498 -213 -535 -229 l-68 -29 0 830 0 831 -101
142 c-578 807 -1033 1735 -1329 2714 -431 1426 -546 3016 -329 4561 153 1088
471 2143 938 3106 411 848 934 1628 1570 2340 163 182 566 585 754 754 1823
1629 4137 2549 6747 2681 254 13 885 13 1120 0 605 -33 1275 -124 1860 -251
102 -22 201 -42 220 -45 l35 -4 -40 15 c-68 27 -471 141 -701 199 -671 168
-1323 267 -2014 306 -201 11 -998 11 -1205 -1z"/>
<path d="M12665 22123 c-1408 -36 -2878 -380 -3949 -923 -869 -441 -1616
-1040 -2186 -1756 -489 -613 -875 -1363 -1044 -2029 -94 -368 -60 -522 118
-533 60 -4 92 6 682 201 2244 744 3963 1274 5149 1586 1968 517 3924 950 5681
1255 341 60 391 78 439 160 32 54 34 141 5 203 -46 101 -204 298 -355 441
-737 697 -1884 1165 -3280 1336 -264 33 -410 44 -710 56 -236 9 -307 10 -550
3z m645 -279 c932 -79 1870 -388 2359 -778 96 -77 212 -204 249 -274 49 -92
63 -140 63 -222 0 -105 -28 -179 -95 -245 -116 -116 -275 -173 -846 -305 -168
-39 -314 -73 -325 -76 -11 -3 10 11 47 30 199 104 320 220 393 380 101 218 58
401 -144 610 -143 148 -294 253 -546 381 -486 248 -1120 417 -1837 490 -81 8
-153 16 -160 17 -7 1 39 5 102 9 161 9 532 1 740 -17z m-4220 -738 c0 -1 -33
-25 -72 -51 -467 -308 -973 -798 -1370 -1324 -413 -548 -745 -1207 -883 -1752
-30 -117 -42 -143 -82 -181 -36 -34 -73 -48 -129 -48 -91 0 -162 57 -184 149
-10 43 -9 68 5 154 71 432 421 1063 913 1647 138 164 544 568 701 700 317 263
635 475 960 641 138 70 141 72 141 65z"/>
<path d="M19050 19444 c-14 -2 -77 -11 -140 -20 -131 -17 -668 -106 -997 -164
-122 -22 -225 -40 -228 -40 -3 0 -5 -810 -5 -1801 l0 -1801 28 6 c15 3 146 29
292 56 146 28 293 60 327 71 150 49 261 158 315 309 22 64 23 75 28 551 l5
485 415 -494 c228 -272 435 -512 460 -534 161 -143 399 -168 601 -61 167 87
259 240 259 427 0 97 -16 163 -60 244 -33 62 -53 86 -452 534 -131 147 -239
271 -240 276 -2 5 38 41 87 79 284 221 450 489 496 803 17 116 7 335 -20 424
-97 328 -349 547 -726 631 -68 16 -389 29 -445 19z m-16 -791 c86 -24 157 -94
181 -177 24 -82 16 -217 -17 -306 -49 -133 -162 -264 -319 -369 -80 -54 -197
-117 -204 -109 -1 2 -5 215 -9 475 l-7 471 78 15 c107 21 224 21 297 0z"/>
<path d="M17320 19148 c-494 -87 -2028 -402 -2047 -421 -2 -3 -7 -822 -10
-1821 -6 -1626 -5 -1816 9 -1816 8 0 258 56 555 125 297 69 722 165 944 215
227 51 427 101 456 115 63 28 143 101 178 161 54 91 65 171 65 456 0 142 -3
258 -7 258 -9 0 -1139 -249 -1165 -256 -17 -5 -18 16 -18 340 l0 346 23 5 c12
3 132 28 267 55 369 77 509 110 565 135 94 41 148 103 180 206 14 43 18 108
22 312 l6 258 -24 -6 c-13 -3 -251 -54 -529 -114 l-505 -108 -3 270 c-1 149
-1 272 1 274 2 1 199 43 438 93 239 49 449 94 467 99 94 28 176 105 214 200
20 51 23 76 26 296 2 132 2 263 0 291 l-3 50 -105 -18z"/>
<path d="M13950 18473 c-374 -35 -646 -110 -908 -248 -668 -354 -1057 -1034
-1089 -1905 -20 -563 123 -1018 415 -1322 189 -197 409 -318 690 -379 138 -29
424 -37 587 -15 358 47 764 203 1006 385 150 113 226 199 288 324 98 199 101
233 101 1116 l0 713 -22 -5 c-13 -4 -340 -79 -728 -167 -388 -89 -715 -164
-728 -167 l-23 -6 3 -256 c3 -245 4 -258 26 -303 13 -26 43 -65 67 -86 76 -67
152 -77 321 -42 55 11 107 23 117 26 16 5 17 -10 17 -216 0 -249 -4 -266 -76
-330 -106 -93 -337 -141 -504 -106 -244 52 -384 219 -447 535 -24 119 -24 439
0 566 55 294 156 498 331 670 232 229 528 312 926 260 152 -20 291 -22 364 -5
125 28 226 106 276 212 41 86 53 156 48 269 -4 81 -10 107 -36 164 -81 173
-282 280 -585 314 -88 10 -352 13 -437 4z"/>
<path d="M10751 17569 c-191 -20 -562 -122 -1153 -316 l-388 -127 0 -1878 c0
-1145 4 -1878 9 -1878 13 0 575 193 626 215 124 53 261 178 314 287 58 117 61
152 61 705 l0 502 168 -172 c93 -95 287 -295 433 -445 145 -150 293 -295 329
-323 185 -140 437 -143 641 -7 207 138 274 443 151 685 -33 63 -69 101 -404
422 -175 166 -318 305 -318 308 0 2 58 61 128 131 241 239 365 441 436 712 74
280 60 548 -40 750 -40 80 -62 109 -138 185 -73 73 -109 100 -182 137 -194
100 -409 134 -673 107z m-140 -821 c182 -54 232 -324 107 -573 -63 -124 -149
-230 -273 -334 -80 -68 -189 -146 -221 -158 -16 -6 -17 29 -10 503 4 280 11
512 15 517 4 4 50 18 102 32 103 26 218 32 280 13z"/>
<path d="M8445 16899 c-22 -5 -149 -46 -282 -91 l-243 -81 0 -1246 c0 -711 -4
-1295 -10 -1361 -16 -189 -54 -301 -132 -386 -53 -58 -99 -87 -177 -114 -164
-55 -285 -1 -343 155 l-23 60 -5 1140 c-5 1034 -7 1144 -22 1182 -60 150 -165
211 -348 201 -90 -5 -232 -49 -530 -162 l-115 -43 -3 -1249 c-2 -860 0 -1288
8 -1373 42 -462 278 -770 670 -871 109 -28 308 -37 450 -21 292 34 678 177
924 341 314 211 520 521 606 916 55 251 53 219 57 1494 3 835 1 1204 -7 1249
-22 127 -86 213 -186 251 -60 22 -211 27 -289 9z"/>
<path d="M5110 15673 c-260 -24 -356 -56 -1202 -396 l-503 -203 -3 -1997 c-1
-1431 1 -1997 9 -1997 15 0 1591 671 1727 735 260 124 483 277 643 441 230
238 339 489 356 826 13 249 -51 437 -205 600 -105 111 -251 199 -383 229 l-57
13 52 45 c210 184 361 414 423 646 24 90 26 118 27 280 1 160 -2 189 -22 260
-36 124 -86 209 -177 301 -66 67 -96 89 -175 128 -157 76 -330 107 -510 89z
m-269 -853 c49 -25 103 -90 119 -142 37 -123 0 -310 -86 -439 -80 -121 -168
-188 -359 -275 l-90 -41 -3 416 c-3 471 -11 425 87 462 136 51 255 58 332 19z
m45 -1473 c101 -52 160 -154 170 -296 16 -207 -95 -419 -284 -545 -60 -39
-270 -144 -322 -161 -20 -6 -20 -1 -20 472 l0 478 58 25 c153 67 301 77 398
27z"/>
<path d="M19340 15603 c-330 -31 -585 -82 -846 -169 -825 -272 -1455 -801
-1812 -1519 -167 -335 -263 -676 -319 -1125 -25 -206 -25 -741 0 -920 98 -695
400 -1204 912 -1540 370 -242 907 -377 1422 -356 739 30 1454 283 1935 686
217 181 346 370 426 620 76 239 82 336 82 1474 l0 918 -22 -4 c-13 -2 -539
-116 -1170 -253 l-1148 -249 0 -326 c0 -360 7 -418 60 -527 38 -76 110 -144
188 -175 49 -19 75 -22 182 -22 112 1 141 5 278 40 l152 40 0 -216 c0 -266 -7
-296 -84 -373 -132 -132 -409 -221 -691 -221 -204 1 -333 36 -476 130 -268
177 -412 545 -413 1054 -1 593 225 1069 642 1352 255 173 576 263 984 275 225
7 342 -4 603 -59 229 -47 342 -56 441 -35 231 49 403 231 465 492 42 179 14
390 -74 545 -50 90 -168 200 -266 248 -184 92 -512 176 -803 207 -132 13 -539
19 -648 8z"/>
<path d="M16015 14720 c-16 -4 -140 -34 -275 -65 -474 -111 -620 -159 -762
-251 -171 -110 -298 -292 -354 -507 -46 -178 -46 -176 -53 -1137 l-6 -914
-110 134 c-687 845 -1399 1638 -1549 1726 -111 66 -193 87 -356 92 -101 3
-171 0 -230 -11 -47 -8 -284 -75 -527 -148 l-443 -134 0 -2747 c0 -1512 4
-2748 8 -2748 5 0 107 34 228 76 120 41 314 107 429 146 244 82 342 125 460
202 201 131 334 318 394 552 44 169 44 182 42 1264 l-3 1034 230 -264 c127
-146 507 -582 844 -969 648 -745 678 -776 823 -846 126 -61 212 -79 370 -80
443 0 760 219 882 610 l28 90 3 2453 2 2452 -22 -1 c-13 0 -36 -4 -53 -9z"/>
<path d="M10550 13295 c-472 -149 -762 -255 -880 -323 -310 -178 -467 -408
-543 -797 l-21 -110 -3 -2424 c-3 -1959 -1 -2422 9 -2418 7 2 103 36 213 75
700 247 894 327 1060 437 244 162 368 348 438 655 l21 95 3 2448 c3 2335 3
2447 -14 2446 -10 0 -137 -38 -283 -84z"/>
<path d="M7876 12370 c-73 -13 -143 -37 -220 -76 -96 -48 -153 -92 -233 -179
-60 -64 -154 -220 -773 -1277 l-705 -1205 -3 960 c-2 908 -3 959 -20 953 -9
-4 -386 -158 -838 -343 l-821 -336 -7 -2740 c-4 -1506 -6 -2741 -4 -2743 8 -8
1279 528 1339 565 167 102 259 241 310 467 22 98 23 112 28 1047 l6 948 671
-713 c369 -392 695 -732 725 -755 124 -95 261 -159 407 -190 120 -24 331 -14
442 22 170 55 306 141 431 272 64 69 89 104 128 186 69 144 86 222 85 387 -2
163 -22 250 -90 390 l-47 95 -516 520 c-284 286 -561 566 -615 622 l-99 102
93 148 c51 81 328 519 615 973 287 454 530 840 540 859 63 124 94 302 75 432
-22 153 -71 257 -173 365 -100 107 -223 180 -382 225 -80 23 -271 33 -349 19z"/>
<path d="M21910 10370 c-360 -36 -648 -225 -795 -523 -57 -115 -82 -202 -96
-338 -48 -439 191 -842 596 -1003 146 -59 206 -70 395 -70 158 0 184 3 275 27
335 90 581 321 686 642 20 61 23 96 27 272 3 180 2 211 -17 285 -76 302 -310
551 -616 656 -134 45 -314 66 -455 52z m325 -244 c237 -80 410 -266 477 -515
30 -108 30 -305 0 -414 -36 -131 -94 -229 -197 -333 -99 -99 -173 -144 -305
-186 -64 -19 -96 -23 -210 -23 -121 1 -143 4 -215 29 -309 106 -495 377 -495
719 0 141 20 228 82 356 44 91 62 116 137 191 69 69 103 95 173 130 129 63
208 81 353 76 98 -3 135 -8 200 -30z"/>
<path d="M21620 9405 l0 -545 110 0 110 0 0 230 0 231 62 -3 62 -3 130 -227
131 -228 118 0 c64 0 117 3 117 6 0 3 -61 106 -135 228 -74 123 -135 227 -135
233 0 5 27 15 60 21 94 20 175 93 200 181 14 52 12 160 -4 215 -29 97 -108
164 -227 190 -52 12 -129 16 -333 16 l-266 0 0 -545z m547 342 c56 -30 76 -65
71 -124 -9 -101 -52 -124 -245 -131 l-143 -5 0 119 c0 66 -3 130 -7 143 l-6
23 149 -4 c115 -3 156 -8 181 -21z"/>
<path d="M19244 9619 c-73 -9 -605 -137 -1104 -266 -2927 -754 -6351 -1830
-8855 -2783 -584 -222 -1432 -570 -1497 -614 -18 -12 -46 -41 -63 -65 -26 -37
-30 -51 -30 -109 0 -103 34 -160 180 -307 181 -182 390 -323 710 -479 1204
-589 2910 -828 4475 -625 1080 139 2215 496 3149 989 1335 704 2372 1738 2976
2965 178 363 325 763 355 973 34 229 -76 349 -296 321z m-874 -915 c110 -60
155 -187 114 -324 -36 -123 -249 -513 -423 -775 -219 -331 -430 -586 -750
-905 -324 -323 -578 -532 -946 -775 -298 -198 -666 -398 -980 -535 -201 -88
-206 -88 -60 0 1142 683 2062 1758 2563 2995 35 88 74 174 85 190 52 77 120
131 197 156 49 16 144 3 200 -27z"/>
</g>
</svg>
